<svg id="Ebene_1" data-name="Ebene 1" xmlns="http://www.w3.org/2000/svg" xmlns:xlink="http://www.w3.org/1999/xlink" width="16" height="16" viewBox="0 0 16 16">
  <defs>
    <style>
      .cls-1 {
        fill: url(#Unbenannter_Verlauf_2);
      }

      .cls-2 {
        fill: url(#Unbenannter_Verlauf_2-2);
      }

      .cls-3 {
        fill: url(#Unbenannter_Verlauf_2-3);
      }
    </style>
    <linearGradient id="Unbenannter_Verlauf_2" data-name="Unbenannter Verlauf 2" x1="1.6" y1="8" x2="14.4" y2="8" gradientUnits="userSpaceOnUse">
      <stop offset="0" stop-color="#74b739"/>
      <stop offset="1" stop-color="#56991c"/>
    </linearGradient>
    <linearGradient id="Unbenannter_Verlauf_2-2" x1="5.25" y1="9.6" x2="12.57" y2="9.6" xlink:href="#Unbenannter_Verlauf_2"/>
    <linearGradient id="Unbenannter_Verlauf_2-3" x1="5.26" y1="7.09" x2="7.09" y2="7.09" xlink:href="#Unbenannter_Verlauf_2"/>
  </defs>
  <g>
    <path class="cls-1" d="M13.94,4.34H12.57V3a.46.46,0,0,0-.46-.46h-10A.46.46,0,0,0,1.6,3V11.2a.46.46,0,0,0,.46.46H3.43V13a.46.46,0,0,0,.46.46h10A.46.46,0,0,0,14.4,13V4.8A.46.46,0,0,0,13.94,4.34ZM2.51,10.74V3.43h9.15v.91H3.89a.46.46,0,0,0-.46.46v5.94Zm11,1.83H4.34V5.26h9.15Z"/>
    <path class="cls-2" d="M9.87,7.54a.47.47,0,0,0-.37.14L7.91,9.27,7.29,9a.46.46,0,0,0-.57.13L5.34,10.92a.46.46,0,0,0,.09.64.42.42,0,0,0,.28.1h6.4a.46.46,0,0,0,.46-.46.44.44,0,0,0-.09-.27L10.2,7.73A.45.45,0,0,0,9.87,7.54Zm-3.24,3.2L7.22,10l.57.29a.46.46,0,0,0,.53-.09L9.77,8.7l1.46,2Z"/>
    <circle class="cls-3" cx="6.17" cy="7.09" r="0.91"/>
  </g>
</svg>
